<svg version="1.1" id="Layer_1" xmlns="http://www.w3.org/2000/svg" xmlns:xlink="http://www.w3.org/1999/xlink" x="0px" y="0px"
	 width="100%" viewBox="0 0 2394 506" enable-background="new 0 0 2394 506" xml:space="preserve">
<path fill="#FFFFFF" opacity="1.000000" stroke="none" 
	d="
M2301.000000,507.000000 
	C1534.000000,507.000000 767.500000,507.000000 1.000000,507.000000 
	C1.000000,338.333344 1.000000,169.666672 1.000000,1.000000 
	C799.000000,1.000000 1597.000000,1.000000 2395.000000,1.000000 
	C2395.000000,169.666672 2395.000000,338.333344 2395.000000,507.000000 
	C2363.833252,507.000000 2332.666748,507.000000 2301.000000,507.000000 
M1989.000000,261.500061 
	C1989.056519,254.175323 1987.733154,246.503830 1989.467651,239.600708 
	C1992.713379,226.683121 2005.265625,212.604568 2022.040039,213.757629 
	C2032.295288,214.462570 2043.175903,220.480362 2045.119385,230.558807 
	C2046.155640,235.931961 2047.797974,241.323547 2047.869385,246.723984 
	C2048.175781,269.881439 2048.000000,293.045288 2048.000000,316.206787 
	C2048.000000,317.783844 2048.000000,319.360931 2048.000000,320.637207 
	C2062.797607,320.637207 2076.870605,320.637207 2090.910889,320.637207 
	C2090.954590,319.942596 2090.993896,319.610718 2090.993896,319.278809 
	C2090.998047,293.117981 2091.100098,266.956543 2090.949707,240.796585 
	C2090.889893,230.377930 2089.034668,220.300430 2085.218994,210.435425 
	C2074.683105,183.197189 2050.853516,173.504120 2026.432861,176.254333 
	C2006.846436,178.460129 1991.305176,188.565598 1980.946289,206.649780 
	C1970.277954,189.456451 1955.325684,178.574356 1935.731079,176.243759 
	C1915.578857,173.846832 1899.002441,181.457581 1887.000000,200.235062 
	C1887.000000,193.001221 1887.199585,187.531204 1886.864502,182.094147 
	C1886.777222,180.677261 1885.046021,178.197495 1884.031738,178.177872 
	C1870.438354,177.914764 1856.838013,178.001740 1843.266602,178.001740 
	C1843.266602,225.944260 1843.266602,273.341858 1843.266602,321.000000 
	C1856.334351,321.000000 1869.139893,320.861420 1881.938965,321.083008 
	C1885.869629,321.151031 1887.115112,320.030945 1887.085571,316.008942 
	C1886.911499,292.348846 1887.187134,268.684662 1886.916504,245.026367 
	C1886.791504,234.101471 1891.080322,225.621140 1899.456421,219.146317 
	C1907.614502,212.839874 1924.479492,211.451691 1933.622925,218.942734 
	C1941.247192,225.189301 1944.691650,233.280212 1944.860718,242.477997 
	C1945.282837,265.465118 1944.957031,288.465332 1945.018799,311.460022 
	C1945.048340,322.486176 1943.512695,320.918701 1954.508179,320.984711 
	C1965.936523,321.053314 1977.365601,321.000000 1989.000000,321.000000 
	C1989.000000,301.115051 1989.000000,281.807556 1989.000000,261.500061 
M358.000000,284.500000 
	C358.000000,273.333099 357.913055,262.165375 358.023590,250.999557 
	C358.142151,239.018875 357.777985,227.152969 354.048523,215.572754 
	C348.179871,197.350098 337.459900,184.029907 318.324890,178.708313 
	C294.639618,172.121277 274.016815,177.258575 256.745453,194.850235 
	C253.422852,198.234482 250.736832,202.243729 247.642075,206.108353 
	C236.713959,189.078812 221.497650,178.158096 201.313797,176.178986 
	C180.563736,174.144318 164.275177,182.624237 152.748383,200.441696 
	C152.748383,193.020554 152.748383,185.599426 152.748383,178.303497 
	C138.326721,178.303497 124.253654,178.303497 110.307465,178.303497 
	C110.307465,226.012787 110.307465,273.418030 110.307465,320.688263 
	C124.689995,320.688263 138.763275,320.688263 153.000000,320.688263 
	C153.000000,295.892517 152.815277,271.406128 153.083359,246.924683 
	C153.204697,235.844284 157.083939,226.133469 166.309448,219.207947 
	C174.746353,212.874451 191.471741,211.543655 200.509888,218.849701 
	C208.321487,225.164276 211.735870,233.427353 211.877380,242.836655 
	C212.243240,267.164276 212.000000,291.501038 212.000000,315.834167 
	C212.000000,317.447845 212.000000,319.061554 212.000000,320.765381 
	C226.866806,320.765381 241.271988,320.765381 256.000000,320.765381 
	C256.000000,318.903809 256.000000,317.272583 256.000000,315.641357 
	C256.000000,291.641571 255.994888,267.641785 256.012360,243.642014 
	C256.013458,242.157700 255.867905,240.560532 256.339172,239.206848 
	C260.783722,226.439774 272.234924,212.380295 289.912048,213.800766 
	C301.378662,214.722168 310.701691,221.797318 312.891785,232.539856 
	C314.122681,238.577667 314.841400,244.818436 314.907959,250.977310 
	C315.143982,272.807892 314.995850,294.642609 315.009491,316.475739 
	C315.010406,317.913574 315.147644,319.351379 315.217682,320.715332 
	C329.635193,320.715332 343.707764,320.715332 358.000000,320.715332 
	C358.000000,308.787903 358.000000,297.143951 358.000000,284.500000 
M841.500122,321.000000 
	C849.261902,321.000000 857.023682,321.000000 864.750732,321.000000 
	C864.750732,273.053986 864.750732,225.674011 864.750732,178.238815 
	C850.098999,178.238815 835.697754,178.238815 820.905151,178.238815 
	C820.905151,182.161865 820.905151,185.864594 820.905151,190.012527 
	C817.711304,187.690674 815.059326,185.639389 812.286133,183.767746 
	C799.265259,174.979828 784.579346,173.828583 770.105896,177.237000 
	C736.217651,185.217545 715.747742,211.030502 714.146729,245.240189 
	C713.806274,252.514969 714.935974,259.940094 716.085693,267.185272 
	C718.157166,280.238831 724.036316,291.629364 732.923218,301.364227 
	C742.211121,311.538361 753.618713,318.548279 767.070740,321.435089 
	C776.508301,323.460388 785.993103,324.784729 795.918091,322.260010 
	C805.644775,319.785736 814.048889,315.829376 821.236328,307.719910 
	C821.236328,312.633789 821.236328,316.721222 821.236328,321.000000 
	C827.885071,321.000000 834.192749,321.000000 841.500122,321.000000 
M1099.606689,176.948120 
	C1098.697754,176.632492 1097.795166,176.062592 1096.878784,176.039429 
	C1083.441772,175.699692 1070.403320,176.616104 1057.754395,182.456360 
	C1041.505859,189.958649 1028.776611,200.771698 1020.760010,216.759583 
	C1014.299622,229.643753 1011.916260,243.144318 1013.733032,257.749023 
	C1014.831421,266.579620 1016.539978,275.234100 1020.590454,282.755219 
	C1028.956543,298.289703 1041.447876,309.648193 1058.078125,316.748199 
	C1078.489136,325.462463 1099.071533,325.613525 1119.885498,319.845947 
	C1131.142700,316.726624 1141.281372,311.049072 1146.942627,304.717926 
	C1140.223633,296.509644 1134.060181,288.681458 1127.454956,281.245636 
	C1126.509033,280.180847 1123.089844,280.288544 1121.389160,281.082672 
	C1109.034790,286.851776 1096.197632,288.625854 1082.894653,285.939575 
	C1071.091553,283.556152 1062.400513,277.080750 1057.810059,265.031494 
	C1091.028687,265.031494 1123.793213,265.031494 1157.027222,265.031494 
	C1158.748047,253.664261 1158.803955,242.504868 1156.696533,231.527466 
	C1153.517700,214.969925 1145.602661,200.997086 1132.051270,190.529984 
	C1122.692261,183.301224 1112.221069,178.707642 1099.606689,176.948120 
M1506.000000,294.500000 
	C1506.000000,303.263641 1506.000000,312.027283 1506.000000,320.712860 
	C1520.645142,320.712860 1534.715332,320.712860 1549.000000,320.712860 
	C1549.000000,295.288269 1548.997314,270.150177 1549.006470,245.012085 
	C1549.007080,243.518021 1548.710205,241.874084 1549.214600,240.553070 
	C1554.210571,227.472305 1567.697998,211.795105 1585.112061,213.874481 
	C1591.141113,214.594406 1595.894165,216.102585 1599.284424,221.603363 
	C1603.142212,227.863037 1603.745728,234.829712 1603.850220,241.621826 
	C1604.229736,266.276306 1604.000000,290.940186 1604.000000,315.600525 
	C1604.000000,317.355225 1604.000000,319.109924 1604.000000,320.675415 
	C1618.721069,320.675415 1632.792236,320.675415 1647.000000,320.675415 
	C1647.000000,292.703430 1647.117920,265.054871 1646.909058,237.408783 
	C1646.862549,231.250336 1646.226074,224.976669 1644.895874,218.969849 
	C1640.774292,200.359146 1630.947388,185.778870 1612.384033,179.267029 
	C1591.188965,171.832108 1572.097534,176.012299 1556.205444,192.372223 
	C1553.720947,194.929794 1551.723389,197.960190 1548.760254,201.708496 
	C1548.760254,193.022202 1548.760254,185.604828 1548.760254,178.294998 
	C1534.338867,178.294998 1520.268555,178.294998 1506.000000,178.294998 
	C1506.000000,216.893097 1506.000000,255.196548 1506.000000,294.500000 
M1423.955078,321.558105 
	C1445.628296,316.303345 1463.038208,304.711212 1473.817871,285.087280 
	C1484.166260,266.248383 1484.726929,245.993942 1478.170654,225.673126 
	C1472.639404,208.529465 1461.327637,195.796814 1446.074951,186.666718 
	C1429.074463,176.490402 1410.543945,173.343384 1391.208252,177.464233 
	C1373.671509,181.201706 1358.791504,190.113739 1347.536499,204.174500 
	C1343.282837,209.488602 1339.939575,215.709229 1337.089844,221.932709 
	C1330.903687,235.442886 1330.833984,249.792862 1333.064697,264.154633 
	C1334.952393,276.307922 1339.914307,287.194946 1348.051025,296.545227 
	C1359.395508,309.581757 1373.612427,317.880859 1390.378296,321.630096 
	C1396.376221,322.971344 1402.604492,323.722717 1408.745361,323.844299 
	C1413.546387,323.939362 1418.374756,322.645966 1423.955078,321.558105 
M1699.584229,189.945618 
	C1694.132935,195.386719 1688.020752,200.317459 1683.352783,206.363281 
	C1668.517456,225.578018 1665.861572,247.274734 1671.806885,270.394684 
	C1675.809937,285.961212 1684.574219,298.255585 1697.342773,307.839264 
	C1711.376587,318.372681 1727.426880,323.841583 1744.697632,323.661469 
	C1753.985596,323.564545 1763.529907,320.852356 1772.437622,317.800079 
	C1786.144165,313.103516 1797.392700,304.570709 1806.090088,292.678101 
	C1816.153687,278.917236 1819.649292,263.627930 1819.115234,246.806229 
	C1818.520508,228.075592 1812.238525,211.690536 1798.924072,198.869659 
	C1791.839966,192.047989 1782.968384,186.634613 1774.089111,182.226318 
	C1759.501831,174.984100 1743.749512,174.400238 1727.847778,177.579224 
	C1717.764160,179.595093 1708.873901,184.375259 1699.584229,189.945618 
M464.031464,354.673431 
	C470.682465,340.072479 477.353210,325.480438 483.978516,310.867828 
	C489.606903,298.454010 495.240540,286.042084 500.769592,273.583923 
	C511.303711,249.848251 521.760925,226.078430 532.258362,202.326492 
	C535.919373,194.043045 539.604980,185.770523 543.433472,177.145691 
	C528.519165,177.145691 514.385376,177.145691 500.329102,177.145691 
	C487.133087,207.535461 474.002563,237.774506 460.752899,268.287842 
	C459.976074,267.392181 459.388977,266.964935 459.139435,266.390930 
	C453.070892,252.432755 447.069489,238.445358 440.990784,224.491623 
	C434.525940,209.651443 428.074036,194.804031 421.364227,180.074677 
	C420.709259,178.636871 418.310944,177.191040 416.675323,177.136230 
	C408.019165,176.846100 399.348083,177.000015 390.682190,177.000000 
	C386.475555,177.000000 382.268921,177.000000 377.653351,177.000000 
	C378.385559,179.513214 378.688812,181.280243 379.394684,182.868286 
	C390.592468,208.061188 401.797546,233.251083 413.094849,258.399445 
	C420.850677,275.664246 428.821930,292.832611 436.505066,310.129242 
	C437.567841,312.521790 438.676453,315.888092 437.799133,317.979401 
	C433.579132,328.038757 428.611145,337.781433 424.053009,347.702820 
	C420.259796,355.959167 416.667053,364.307648 412.815277,372.999451 
	C426.766663,372.999451 440.248901,373.065277 453.727844,372.885010 
	C454.914032,372.869141 456.577698,371.493469 457.166229,370.321014 
	C459.608826,365.454865 461.723907,360.424286 464.031464,354.673431 
M2152.031250,358.678040 
	C2150.027100,363.339630 2148.023193,368.001221 2145.874023,373.000000 
	C2158.115479,373.000000 2169.966064,372.481171 2181.739990,373.206787 
	C2188.157227,373.602295 2190.613281,370.651642 2192.792236,365.661926 
	C2203.117188,342.017578 2213.560303,318.424835 2224.024658,294.841705 
	C2233.645996,273.158295 2243.313721,251.495346 2253.026611,229.852676 
	C2259.197510,216.101868 2265.552734,202.433380 2271.678467,188.662628 
	C2273.257812,185.112335 2274.283447,181.315674 2275.783203,177.000000 
	C2262.519287,177.000000 2250.375000,177.196381 2238.243408,176.891342 
	C2234.110107,176.787415 2232.361084,178.703598 2230.998779,182.006744 
	C2228.251709,188.667480 2225.393555,195.282425 2222.559814,201.907242 
	C2217.709473,213.247147 2212.879639,224.596161 2207.971680,235.911072 
	C2203.324707,246.623276 2198.588623,257.296631 2193.661377,268.511658 
	C2192.597412,266.788971 2191.692627,265.654449 2191.134521,264.369263 
	C2184.817627,249.823242 2178.581787,235.241943 2172.266602,220.695160 
	C2167.225098,209.081757 2161.874023,197.596603 2157.093262,185.877853 
	C2153.522705,177.125534 2153.830322,177.000000 2144.867676,177.000000 
	C2133.624268,177.000000 2122.380615,177.000000 2110.940186,177.000000 
	C2111.069824,178.240738 2110.978516,178.956512 2111.227783,179.522110 
	C2121.499268,202.835159 2131.724365,226.169281 2142.123535,249.425415 
	C2151.221924,269.772858 2160.576172,290.006195 2169.654053,310.362518 
	C2170.656006,312.609161 2171.682861,315.806305 2170.839111,317.759552 
	C2164.989746,331.300720 2158.648193,344.629211 2152.031250,358.678040 
M1220.447021,316.041992 
	C1234.250244,322.344635 1248.491577,324.029266 1263.665283,322.184448 
	C1285.981689,319.471283 1302.122070,308.141998 1314.331055,289.558716 
	C1303.023926,284.323639 1291.990112,279.215118 1280.772705,274.021545 
	C1270.698242,282.762085 1259.142578,287.237427 1245.574829,283.936218 
	C1238.825317,282.294006 1232.715698,279.389740 1227.934570,273.901794 
	C1219.816284,264.582916 1218.726562,253.517151 1220.155518,242.145920 
	C1221.219116,233.682709 1225.397827,226.483704 1232.278809,220.930099 
	C1244.768188,210.850174 1265.836670,211.539703 1277.404785,222.899689 
	C1279.346191,224.806305 1281.224854,225.113113 1283.798218,223.759720 
	C1289.625000,220.695160 1295.612061,217.929672 1301.578613,215.138123 
	C1305.446777,213.328384 1309.393921,211.687347 1314.554199,209.422775 
	C1308.864624,203.231277 1304.180542,197.734497 1299.074707,192.662231 
	C1288.912720,182.567230 1276.064331,177.605347 1262.227905,176.177383 
	C1243.462402,174.240738 1225.664673,178.009323 1209.737671,188.759842 
	C1197.287476,197.163559 1187.734253,208.008087 1182.444092,222.171692 
	C1178.273193,233.338852 1176.711548,244.769180 1177.790527,256.899292 
	C1179.308350,273.960419 1185.514648,288.746399 1197.453735,300.539551 
	C1203.773071,306.781586 1212.195068,310.895111 1220.447021,316.041992 
M661.233582,180.030075 
	C655.110962,178.686737 649.045837,176.647339 642.854492,176.135330 
	C626.632996,174.793777 611.212219,177.717392 596.864014,185.954437 
	C581.368958,194.849884 570.177734,207.181458 563.926880,224.045868 
	C559.239014,236.693314 559.345093,249.526108 560.924011,262.660950 
	C563.113831,280.877136 572.153259,295.378662 586.086365,306.259216 
	C603.769165,320.067993 624.163757,325.413483 646.836975,322.126648 
	C666.933655,319.213348 682.567322,309.691742 694.034668,293.186615 
	C694.741028,292.169952 693.999329,288.678894 693.005798,288.179169 
	C684.129639,283.714783 675.114502,279.499969 665.957703,275.645386 
	C664.339783,274.964294 661.715027,275.933350 659.832825,276.767090 
	C655.037903,278.890991 650.621704,282.163818 645.655701,283.549408 
	C633.280823,287.002228 621.905273,284.357300 612.234375,275.694153 
	C603.469421,267.842651 601.538940,257.510071 601.988647,246.365021 
	C602.436951,235.253738 607.181519,226.520508 616.149353,219.973938 
	C628.901672,210.664734 647.103210,211.843765 660.498901,223.171417 
	C662.739319,225.065933 664.260254,225.022293 666.506592,223.892166 
	C671.097168,221.582703 675.768066,219.433563 680.383301,217.172379 
	C685.375671,214.726501 690.342285,212.228134 695.511353,209.657578 
	C687.377808,195.573868 676.420044,185.970291 661.233582,180.030075 
M904.517090,321.000000 
	C914.946716,321.000000 925.376343,321.000000 935.691956,321.000000 
	C935.864868,320.099304 935.977539,319.785614 935.977783,319.471893 
	C935.991150,301.473053 935.946289,283.473938 936.044861,265.475616 
	C936.062561,262.239227 936.416016,258.956573 937.041687,255.779419 
	C941.233093,234.496033 962.836731,217.056107 983.931335,217.975464 
	C987.865967,218.146942 991.814514,218.000000 995.999451,218.000000 
	C995.999451,204.835754 995.947510,192.197647 996.037598,179.560532 
	C996.058899,176.568253 994.620422,175.813644 992.007874,175.987961 
	C986.431946,176.359985 980.843201,176.561584 975.274719,177.017212 
	C961.393860,178.152893 951.594177,186.000946 943.788208,196.760712 
	C941.058960,200.522766 939.009583,204.778168 936.649780,208.808304 
	C936.354370,208.694916 936.058960,208.581528 935.763550,208.468124 
	C935.763550,198.380722 935.763550,188.293304 935.763550,178.291473 
	C921.350037,178.291473 907.277771,178.291473 893.292969,178.291473 
	C893.292969,225.986984 893.292969,273.390442 893.292969,321.000000 
	C896.897217,321.000000 900.210144,321.000000 904.517090,321.000000 
z"/>
<path fill="#000000" opacity="1.000000" stroke="none" 
	d="
M1989.000000,262.000061 
	C1989.000000,281.807556 1989.000000,301.115051 1989.000000,321.000000 
	C1977.365601,321.000000 1965.936523,321.053314 1954.508179,320.984711 
	C1943.512695,320.918701 1945.048340,322.486176 1945.018799,311.460022 
	C1944.957031,288.465332 1945.282837,265.465118 1944.860718,242.477997 
	C1944.691650,233.280212 1941.247192,225.189301 1933.622925,218.942734 
	C1924.479492,211.451691 1907.614502,212.839874 1899.456421,219.146317 
	C1891.080322,225.621140 1886.791504,234.101471 1886.916504,245.026367 
	C1887.187134,268.684662 1886.911499,292.348846 1887.085571,316.008942 
	C1887.115112,320.030945 1885.869629,321.151031 1881.938965,321.083008 
	C1869.139893,320.861420 1856.334351,321.000000 1843.266602,321.000000 
	C1843.266602,273.341858 1843.266602,225.944260 1843.266602,178.001740 
	C1856.838013,178.001740 1870.438354,177.914764 1884.031738,178.177872 
	C1885.046021,178.197495 1886.777222,180.677261 1886.864502,182.094147 
	C1887.199585,187.531204 1887.000000,193.001221 1887.000000,200.235062 
	C1899.002441,181.457581 1915.578857,173.846832 1935.731079,176.243759 
	C1955.325684,178.574356 1970.277954,189.456451 1980.946289,206.649780 
	C1991.305176,188.565598 2006.846436,178.460129 2026.432861,176.254333 
	C2050.853516,173.504120 2074.683105,183.197189 2085.218994,210.435425 
	C2089.034668,220.300430 2090.889893,230.377930 2090.949707,240.796585 
	C2091.100098,266.956543 2090.998047,293.117981 2090.993896,319.278809 
	C2090.993896,319.610718 2090.954590,319.942596 2090.910889,320.637207 
	C2076.870605,320.637207 2062.797607,320.637207 2048.000000,320.637207 
	C2048.000000,319.360931 2048.000000,317.783844 2048.000000,316.206787 
	C2048.000000,293.045288 2048.175781,269.881439 2047.869385,246.723984 
	C2047.797974,241.323547 2046.155640,235.931961 2045.119385,230.558807 
	C2043.175903,220.480362 2032.295288,214.462570 2022.040039,213.757629 
	C2005.265625,212.604568 1992.713379,226.683121 1989.467651,239.600708 
	C1987.733154,246.503830 1989.056519,254.175323 1989.000000,262.000061 
z"/>
<path fill="#000000" opacity="1.000000" stroke="none" 
	d="
M358.000000,285.000000 
	C358.000000,297.143951 358.000000,308.787903 358.000000,320.715332 
	C343.707764,320.715332 329.635193,320.715332 315.217682,320.715332 
	C315.147644,319.351379 315.010406,317.913574 315.009491,316.475739 
	C314.995850,294.642609 315.143982,272.807892 314.907959,250.977310 
	C314.841400,244.818436 314.122681,238.577667 312.891785,232.539856 
	C310.701691,221.797318 301.378662,214.722168 289.912048,213.800766 
	C272.234924,212.380295 260.783722,226.439774 256.339172,239.206848 
	C255.867905,240.560532 256.013458,242.157700 256.012360,243.642014 
	C255.994888,267.641785 256.000000,291.641571 256.000000,315.641357 
	C256.000000,317.272583 256.000000,318.903809 256.000000,320.765381 
	C241.271988,320.765381 226.866806,320.765381 212.000000,320.765381 
	C212.000000,319.061554 212.000000,317.447845 212.000000,315.834167 
	C212.000000,291.501038 212.243240,267.164276 211.877380,242.836655 
	C211.735870,233.427353 208.321487,225.164276 200.509888,218.849701 
	C191.471741,211.543655 174.746353,212.874451 166.309448,219.207947 
	C157.083939,226.133469 153.204697,235.844284 153.083359,246.924683 
	C152.815277,271.406128 153.000000,295.892517 153.000000,320.688263 
	C138.763275,320.688263 124.689995,320.688263 110.307465,320.688263 
	C110.307465,273.418030 110.307465,226.012787 110.307465,178.303497 
	C124.253654,178.303497 138.326721,178.303497 152.748383,178.303497 
	C152.748383,185.599426 152.748383,193.020554 152.748383,200.441696 
	C164.275177,182.624237 180.563736,174.144318 201.313797,176.178986 
	C221.497650,178.158096 236.713959,189.078812 247.642075,206.108353 
	C250.736832,202.243729 253.422852,198.234482 256.745453,194.850235 
	C274.016815,177.258575 294.639618,172.121277 318.324890,178.708313 
	C337.459900,184.029907 348.179871,197.350098 354.048523,215.572754 
	C357.777985,227.152969 358.142151,239.018875 358.023590,250.999557 
	C357.913055,262.165375 358.000000,273.333099 358.000000,285.000000 
z"/>
<path fill="#000000" opacity="1.000000" stroke="none" 
	d="
M841.000244,321.000000 
	C834.192749,321.000000 827.885071,321.000000 821.236328,321.000000 
	C821.236328,316.721222 821.236328,312.633789 821.236328,307.719910 
	C814.048889,315.829376 805.644775,319.785736 795.918091,322.260010 
	C785.993103,324.784729 776.508301,323.460388 767.070740,321.435089 
	C753.618713,318.548279 742.211121,311.538361 732.923218,301.364227 
	C724.036316,291.629364 718.157166,280.238831 716.085693,267.185272 
	C714.935974,259.940094 713.806274,252.514969 714.146729,245.240189 
	C715.747742,211.030502 736.217651,185.217545 770.105896,177.237000 
	C784.579346,173.828583 799.265259,174.979828 812.286133,183.767746 
	C815.059326,185.639389 817.711304,187.690674 820.905151,190.012527 
	C820.905151,185.864594 820.905151,182.161865 820.905151,178.238815 
	C835.697754,178.238815 850.098999,178.238815 864.750732,178.238815 
	C864.750732,225.674011 864.750732,273.053986 864.750732,321.000000 
	C857.023682,321.000000 849.261902,321.000000 841.000244,321.000000 
M760.418518,231.064621 
	C754.784729,242.123642 754.778137,253.551651 759.084412,264.858429 
	C767.012817,285.675659 791.929443,289.960510 807.560547,280.868042 
	C816.797302,275.495148 821.152100,266.658691 822.645142,256.575562 
	C824.285278,245.498764 822.721191,234.664536 815.843811,225.464157 
	C802.557190,207.689651 770.638733,210.696930 760.418518,231.064621 
z"/>
<path fill="#000000" opacity="1.000000" stroke="none" 
	d="
M1100.055542,176.972031 
	C1112.221069,178.707642 1122.692261,183.301224 1132.051270,190.529984 
	C1145.602661,200.997086 1153.517700,214.969925 1156.696533,231.527466 
	C1158.803955,242.504868 1158.748047,253.664261 1157.027222,265.031494 
	C1123.793213,265.031494 1091.028687,265.031494 1057.810059,265.031494 
	C1062.400513,277.080750 1071.091553,283.556152 1082.894653,285.939575 
	C1096.197632,288.625854 1109.034790,286.851776 1121.389160,281.082672 
	C1123.089844,280.288544 1126.509033,280.180847 1127.454956,281.245636 
	C1134.060181,288.681458 1140.223633,296.509644 1146.942627,304.717926 
	C1141.281372,311.049072 1131.142700,316.726624 1119.885498,319.845947 
	C1099.071533,325.613525 1078.489136,325.462463 1058.078125,316.748199 
	C1041.447876,309.648193 1028.956543,298.289703 1020.590454,282.755219 
	C1016.539978,275.234100 1014.831421,266.579620 1013.733032,257.749023 
	C1011.916260,243.144318 1014.299622,229.643753 1020.760010,216.759583 
	C1028.776611,200.771698 1041.505859,189.958649 1057.754395,182.456360 
	C1070.403320,176.616104 1083.441772,175.699692 1096.878784,176.039429 
	C1097.795166,176.062592 1098.697754,176.632492 1100.055542,176.972031 
M1100.498291,234.000000 
	C1106.258789,234.000000 1112.019409,234.000000 1117.858521,234.000000 
	C1115.252563,221.013962 1101.456787,213.697006 1090.711182,212.895264 
	C1075.226562,211.739899 1061.557251,223.132477 1058.628906,233.949738 
	C1058.960693,233.965286 1059.292480,233.994400 1059.624268,233.994476 
	C1072.915894,233.997955 1086.207642,233.998795 1100.498291,234.000000 
z"/>
<path fill="#000000" opacity="1.000000" stroke="none" 
	d="
M1506.000000,294.000000 
	C1506.000000,255.196548 1506.000000,216.893097 1506.000000,178.294998 
	C1520.268555,178.294998 1534.338867,178.294998 1548.760254,178.294998 
	C1548.760254,185.604828 1548.760254,193.022202 1548.760254,201.708496 
	C1551.723389,197.960190 1553.720947,194.929794 1556.205444,192.372223 
	C1572.097534,176.012299 1591.188965,171.832108 1612.384033,179.267029 
	C1630.947388,185.778870 1640.774292,200.359146 1644.895874,218.969849 
	C1646.226074,224.976669 1646.862549,231.250336 1646.909058,237.408783 
	C1647.117920,265.054871 1647.000000,292.703430 1647.000000,320.675415 
	C1632.792236,320.675415 1618.721069,320.675415 1604.000000,320.675415 
	C1604.000000,319.109924 1604.000000,317.355225 1604.000000,315.600525 
	C1604.000000,290.940186 1604.229736,266.276306 1603.850220,241.621826 
	C1603.745728,234.829712 1603.142212,227.863037 1599.284424,221.603363 
	C1595.894165,216.102585 1591.141113,214.594406 1585.112061,213.874481 
	C1567.697998,211.795105 1554.210571,227.472305 1549.214600,240.553070 
	C1548.710205,241.874084 1549.007080,243.518021 1549.006470,245.012085 
	C1548.997314,270.150177 1549.000000,295.288269 1549.000000,320.712860 
	C1534.715332,320.712860 1520.645142,320.712860 1506.000000,320.712860 
	C1506.000000,312.027283 1506.000000,303.263641 1506.000000,294.000000 
z"/>
<path fill="#000000" opacity="1.000000" stroke="none" 
	d="
M1423.572998,321.763794 
	C1418.374756,322.645966 1413.546387,323.939362 1408.745361,323.844299 
	C1402.604492,323.722717 1396.376221,322.971344 1390.378296,321.630096 
	C1373.612427,317.880859 1359.395508,309.581757 1348.051025,296.545227 
	C1339.914307,287.194946 1334.952393,276.307922 1333.064697,264.154633 
	C1330.833984,249.792862 1330.903687,235.442886 1337.089844,221.932709 
	C1339.939575,215.709229 1343.282837,209.488602 1347.536499,204.174500 
	C1358.791504,190.113739 1373.671509,181.201706 1391.208252,177.464233 
	C1410.543945,173.343384 1429.074463,176.490402 1446.074951,186.666718 
	C1461.327637,195.796814 1472.639404,208.529465 1478.170654,225.673126 
	C1484.726929,245.993942 1484.166260,266.248383 1473.817871,285.087280 
	C1463.038208,304.711212 1445.628296,316.303345 1423.572998,321.763794 
M1379.958862,228.564194 
	C1374.419312,236.622406 1372.834473,245.791046 1374.184448,255.103149 
	C1375.367554,263.264893 1378.200317,270.790802 1385.034546,276.789764 
	C1400.313965,290.202087 1423.806396,286.998413 1434.935059,270.036377 
	C1443.837646,256.467163 1441.499756,232.762558 1428.546997,221.804642 
	C1413.420410,209.007568 1390.091919,212.495956 1379.958862,228.564194 
z"/>
<path fill="#000000" opacity="1.000000" stroke="none" 
	d="
M1699.831543,189.671875 
	C1708.873901,184.375259 1717.764160,179.595093 1727.847778,177.579224 
	C1743.749512,174.400238 1759.501831,174.984100 1774.089111,182.226318 
	C1782.968384,186.634613 1791.839966,192.047989 1798.924072,198.869659 
	C1812.238525,211.690536 1818.520508,228.075592 1819.115234,246.806229 
	C1819.649292,263.627930 1816.153687,278.917236 1806.090088,292.678101 
	C1797.392700,304.570709 1786.144165,313.103516 1772.437622,317.800079 
	C1763.529907,320.852356 1753.985596,323.564545 1744.697632,323.661469 
	C1727.426880,323.841583 1711.376587,318.372681 1697.342773,307.839264 
	C1684.574219,298.255585 1675.809937,285.961212 1671.806885,270.394684 
	C1665.861572,247.274734 1668.517456,225.578018 1683.352783,206.363281 
	C1688.020752,200.317459 1694.132935,195.386719 1699.831543,189.671875 
M1755.427734,283.085632 
	C1766.160156,279.439484 1772.645630,271.930420 1776.086426,261.240601 
	C1778.365601,254.160217 1778.625000,246.932861 1776.405518,240.220139 
	C1774.345093,233.987823 1771.446777,227.154297 1766.819824,222.829132 
	C1756.779785,213.443665 1744.330566,211.127670 1731.219971,216.381668 
	C1724.349854,219.134811 1718.225952,224.147736 1715.381836,230.447968 
	C1711.601929,238.820786 1709.404419,248.130951 1711.900391,257.858459 
	C1714.153198,266.638885 1717.989136,273.924225 1725.609253,279.292694 
	C1734.752563,285.734222 1744.513794,286.141602 1755.427734,283.085632 
z"/>
<path fill="#000000" opacity="1.000000" stroke="none" 
	d="
M463.995361,355.063751 
	C461.723907,360.424286 459.608826,365.454865 457.166229,370.321014 
	C456.577698,371.493469 454.914032,372.869141 453.727844,372.885010 
	C440.248901,373.065277 426.766663,372.999451 412.815277,372.999451 
	C416.667053,364.307648 420.259796,355.959167 424.053009,347.702820 
	C428.611145,337.781433 433.579132,328.038757 437.799133,317.979401 
	C438.676453,315.888092 437.567841,312.521790 436.505066,310.129242 
	C428.821930,292.832611 420.850677,275.664246 413.094849,258.399445 
	C401.797546,233.251083 390.592468,208.061188 379.394684,182.868286 
	C378.688812,181.280243 378.385559,179.513214 377.653351,177.000000 
	C382.268921,177.000000 386.475555,177.000000 390.682190,177.000000 
	C399.348083,177.000015 408.019165,176.846100 416.675323,177.136230 
	C418.310944,177.191040 420.709259,178.636871 421.364227,180.074677 
	C428.074036,194.804031 434.525940,209.651443 440.990784,224.491623 
	C447.069489,238.445358 453.070892,252.432755 459.139435,266.390930 
	C459.388977,266.964935 459.976074,267.392181 460.752899,268.287842 
	C474.002563,237.774506 487.133087,207.535461 500.329102,177.145691 
	C514.385376,177.145691 528.519165,177.145691 543.433472,177.145691 
	C539.604980,185.770523 535.919373,194.043045 532.258362,202.326492 
	C521.760925,226.078430 511.303711,249.848251 500.769592,273.583923 
	C495.240540,286.042084 489.606903,298.454010 483.978516,310.867828 
	C477.353210,325.480438 470.682465,340.072479 463.995361,355.063751 
z"/>
<path fill="#000000" opacity="1.000000" stroke="none" 
	d="
M2152.247803,358.352020 
	C2158.648193,344.629211 2164.989746,331.300720 2170.839111,317.759552 
	C2171.682861,315.806305 2170.656006,312.609161 2169.654053,310.362518 
	C2160.576172,290.006195 2151.221924,269.772858 2142.123535,249.425415 
	C2131.724365,226.169281 2121.499268,202.835159 2111.227783,179.522110 
	C2110.978516,178.956512 2111.069824,178.240738 2110.940186,177.000000 
	C2122.380615,177.000000 2133.624268,177.000000 2144.867676,177.000000 
	C2153.830322,177.000000 2153.522705,177.125534 2157.093262,185.877853 
	C2161.874023,197.596603 2167.225098,209.081757 2172.266602,220.695160 
	C2178.581787,235.241943 2184.817627,249.823242 2191.134521,264.369263 
	C2191.692627,265.654449 2192.597412,266.788971 2193.661377,268.511658 
	C2198.588623,257.296631 2203.324707,246.623276 2207.971680,235.911072 
	C2212.879639,224.596161 2217.709473,213.247147 2222.559814,201.907242 
	C2225.393555,195.282425 2228.251709,188.667480 2230.998779,182.006744 
	C2232.361084,178.703598 2234.110107,176.787415 2238.243408,176.891342 
	C2250.375000,177.196381 2262.519287,177.000000 2275.783203,177.000000 
	C2274.283447,181.315674 2273.257812,185.112335 2271.678467,188.662628 
	C2265.552734,202.433380 2259.197510,216.101868 2253.026611,229.852676 
	C2243.313721,251.495346 2233.645996,273.158295 2224.024658,294.841705 
	C2213.560303,318.424835 2203.117188,342.017578 2192.792236,365.661926 
	C2190.613281,370.651642 2188.157227,373.602295 2181.739990,373.206787 
	C2169.966064,372.481171 2158.115479,373.000000 2145.874023,373.000000 
	C2148.023193,368.001221 2150.027100,363.339630 2152.247803,358.352020 
z"/>
<path fill="#000000" opacity="1.000000" stroke="none" 
	d="
M1220.057373,316.005768 
	C1212.195068,310.895111 1203.773071,306.781586 1197.453735,300.539551 
	C1185.514648,288.746399 1179.308350,273.960419 1177.790527,256.899292 
	C1176.711548,244.769180 1178.273193,233.338852 1182.444092,222.171692 
	C1187.734253,208.008087 1197.287476,197.163559 1209.737671,188.759842 
	C1225.664673,178.009323 1243.462402,174.240738 1262.227905,176.177383 
	C1276.064331,177.605347 1288.912720,182.567230 1299.074707,192.662231 
	C1304.180542,197.734497 1308.864624,203.231277 1314.554199,209.422775 
	C1309.393921,211.687347 1305.446777,213.328384 1301.578613,215.138123 
	C1295.612061,217.929672 1289.625000,220.695160 1283.798218,223.759720 
	C1281.224854,225.113113 1279.346191,224.806305 1277.404785,222.899689 
	C1265.836670,211.539703 1244.768188,210.850174 1232.278809,220.930099 
	C1225.397827,226.483704 1221.219116,233.682709 1220.155518,242.145920 
	C1218.726562,253.517151 1219.816284,264.582916 1227.934570,273.901794 
	C1232.715698,279.389740 1238.825317,282.294006 1245.574829,283.936218 
	C1259.142578,287.237427 1270.698242,282.762085 1280.772705,274.021545 
	C1291.990112,279.215118 1303.023926,284.323639 1314.331055,289.558716 
	C1302.122070,308.141998 1285.981689,319.471283 1263.665283,322.184448 
	C1248.491577,324.029266 1234.250244,322.344635 1220.057373,316.005768 
z"/>
<path fill="#000000" opacity="1.000000" stroke="none" 
	d="
M661.587524,180.227142 
	C676.420044,185.970291 687.377808,195.573868 695.511353,209.657578 
	C690.342285,212.228134 685.375671,214.726501 680.383301,217.172379 
	C675.768066,219.433563 671.097168,221.582703 666.506592,223.892166 
	C664.260254,225.022293 662.739319,225.065933 660.498901,223.171417 
	C647.103210,211.843765 628.901672,210.664734 616.149353,219.973938 
	C607.181519,226.520508 602.436951,235.253738 601.988647,246.365021 
	C601.538940,257.510071 603.469421,267.842651 612.234375,275.694153 
	C621.905273,284.357300 633.280823,287.002228 645.655701,283.549408 
	C650.621704,282.163818 655.037903,278.890991 659.832825,276.767090 
	C661.715027,275.933350 664.339783,274.964294 665.957703,275.645386 
	C675.114502,279.499969 684.129639,283.714783 693.005798,288.179169 
	C693.999329,288.678894 694.741028,292.169952 694.034668,293.186615 
	C682.567322,309.691742 666.933655,319.213348 646.836975,322.126648 
	C624.163757,325.413483 603.769165,320.067993 586.086365,306.259216 
	C572.153259,295.378662 563.113831,280.877136 560.924011,262.660950 
	C559.345093,249.526108 559.239014,236.693314 563.926880,224.045868 
	C570.177734,207.181458 581.368958,194.849884 596.864014,185.954437 
	C611.212219,177.717392 626.632996,174.793777 642.854492,176.135330 
	C649.045837,176.647339 655.110962,178.686737 661.587524,180.227142 
z"/>
<path fill="#000000" opacity="1.000000" stroke="none" 
	d="
M904.020142,321.000000 
	C900.210144,321.000000 896.897217,321.000000 893.292969,321.000000 
	C893.292969,273.390442 893.292969,225.986984 893.292969,178.291473 
	C907.277771,178.291473 921.350037,178.291473 935.763550,178.291473 
	C935.763550,188.293304 935.763550,198.380722 935.763550,208.468124 
	C936.058960,208.581528 936.354370,208.694916 936.649780,208.808304 
	C939.009583,204.778168 941.058960,200.522766 943.788208,196.760712 
	C951.594177,186.000946 961.393860,178.152893 975.274719,177.017212 
	C980.843201,176.561584 986.431946,176.359985 992.007874,175.987961 
	C994.620422,175.813644 996.058899,176.568253 996.037598,179.560532 
	C995.947510,192.197647 995.999451,204.835754 995.999451,218.000000 
	C991.814514,218.000000 987.865967,218.146942 983.931335,217.975464 
	C962.836731,217.056107 941.233093,234.496033 937.041687,255.779419 
	C936.416016,258.956573 936.062561,262.239227 936.044861,265.475616 
	C935.946289,283.473938 935.991150,301.473053 935.977783,319.471893 
	C935.977539,319.785614 935.864868,320.099304 935.691956,321.000000 
	C925.376343,321.000000 914.946716,321.000000 904.020142,321.000000 
z"/>
<path fill="#FFFFFF" opacity="1.000000" stroke="none" 
	d="
M760.685669,230.784698 
	C770.638733,210.696930 802.557190,207.689651 815.843811,225.464157 
	C822.721191,234.664536 824.285278,245.498764 822.645142,256.575562 
	C821.152100,266.658691 816.797302,275.495148 807.560547,280.868042 
	C791.929443,289.960510 767.012817,285.675659 759.084412,264.858429 
	C754.778137,253.551651 754.784729,242.123642 760.685669,230.784698 
z"/>
<path fill="#FFFFFF" opacity="1.000000" stroke="none" 
	d="
M1099.998779,234.000000 
	C1086.207642,233.998795 1072.915894,233.997955 1059.624268,233.994476 
	C1059.292480,233.994400 1058.960693,233.965286 1058.628906,233.947998 
	C1061.557251,223.132477 1075.226562,211.739899 1090.711182,212.895264 
	C1101.456787,213.697006 1115.252563,221.013962 1117.858521,234.000000 
	C1112.019409,234.000000 1106.258789,234.000000 1099.998779,234.000000 
z"/>
<path fill="#FFFFFF" opacity="1.000000" stroke="none" 
	d="
M1380.213623,228.290253 
	C1390.091919,212.495956 1413.420410,209.007568 1428.546997,221.804642 
	C1441.499756,232.762558 1443.837646,256.467163 1434.935059,270.036377 
	C1423.806396,286.998413 1400.313965,290.202087 1385.034546,276.789764 
	C1378.200317,270.790802 1375.367554,263.264893 1374.184448,255.103149 
	C1372.834473,245.791046 1374.419312,236.622406 1380.213623,228.290253 
z"/>
<path fill="#FFFFFF" opacity="1.000000" stroke="none" 
	d="
M1755.136719,283.383667 
	C1744.513794,286.141602 1734.752563,285.734222 1725.609253,279.292694 
	C1717.989136,273.924225 1714.153198,266.638885 1711.900391,257.858459 
	C1709.404419,248.130951 1711.601929,238.820786 1715.381836,230.447968 
	C1718.225952,224.147736 1724.349854,219.134811 1731.219971,216.381668 
	C1744.330566,211.127670 1756.779785,213.443665 1766.819824,222.829132 
	C1771.446777,227.154297 1774.345093,233.987823 1776.405518,240.220139 
	C1778.625000,246.932861 1778.365601,254.160217 1776.086426,261.240601 
	C1772.645630,271.930420 1766.160156,279.439484 1755.136719,283.383667 
z"/>
</svg>